<svg data-v-0dd9719b="" version="1.0" xmlns="http://www.w3.org/2000/svg" xmlns:xlink="http://www.w3.org/1999/xlink" width="100%" height="100%" viewBox="0 0 340.000000 250.000000" preserveAspectRatio="xMidYMid meet" color-interpolation-filters="sRGB" style="margin: auto;"> <rect data-v-0dd9719b="" x="0" y="0" width="100%" height="100%" fill="#fff" fill-opacity="1" class="background"></rect> <rect data-v-0dd9719b="" x="0" y="0" width="100%" height="100%" fill="url(#watermark)" fill-opacity="1" class="watermarklayer"></rect> <g data-v-0dd9719b="" fill="#333" class="icon-text-wrapper icon-svg-group iconsvg" transform="translate(48.74000549316406,95.03805160522461)"><g class="iconsvg-imagesvg" transform="translate(0,0)"><g><rect fill="#333" fill-opacity="0" stroke-width="2" x="0" y="0" width="60" height="59.9238966512529" class="image-rect"></rect> <svg x="0" y="0" width="60" height="59.9238966512529" filtersec="colorsb6441279579" class="image-svg-svg primary" style="overflow: visible;"><svg xmlns="http://www.w3.org/2000/svg" viewBox="-0.013412523083388805 0 100.12681579589844 100"><g fill-rule="evenodd"><path d="M50.05 64.56a33.61 33.61 0 0 1-33.61-33.62 2.25 2.25 0 0 1 4.5 0 29.11 29.11 0 0 0 29.11 29.12 9 9 0 1 1 0 18 2.25 2.25 0 1 1 0-4.49 4.5 4.5 0 0 0 3.19-1.33 4.51 4.51 0 0 0-3.19-7.69zm0-12.31a21.31 21.31 0 0 1-2.25-42.5V0a50.05 50.05 0 0 0 0 100v-9.74a21.27 21.27 0 0 1-13.54-6.9 2.24 2.24 0 1 1 3.32-3 17 17 0 0 0 5.66 4.1 16.82 16.82 0 1 0 6.81-32.2z" fill="#0d72ff"></path><path d="M50.05 35.45a33.63 33.63 0 0 1 33.62 33.62 2.25 2.25 0 0 1-4.5 0A29.12 29.12 0 0 0 50.05 40a9 9 0 0 1 0-18 2.25 2.25 0 0 1 0 4.5 4.51 4.51 0 1 0 0 9zm0 12.3a21.32 21.32 0 0 1 2.25 42.51V100a50.05 50.05 0 0 0 0-100v9.75a21.36 21.36 0 0 1 13.55 6.89 2.24 2.24 0 0 1-3.33 3 16.82 16.82 0 1 0-12.47 28.1z" fill="#0daeff"></path></g></svg></svg> <!----></g></g> <g transform="translate(67,15.576948165893555)"><g data-gra="path-name" fill-rule="" class="tp-name iconsvg-namesvg"><g transform="scale(1)"><g><path d="M10.99-7.09L10.99-11.15 20.64-11.15 20.64-17.99 10.99-17.99 10.99-21.64 21.52-21.64 21.52-28.77 2.74-28.77 2.74 0 21.76 0 21.76-7.09ZM34.49-7.09L34.49-28.77 26.24-28.77 26.24 0 45.15 0 45.15-7.09ZM57.04-7.09L57.04-11.15 66.7-11.15 66.7-17.99 57.04-17.99 57.04-21.64 67.57-21.64 67.57-28.77 48.79-28.77 48.79 0 67.82 0 67.82-7.09ZM80.05 0L90.29 0 100.61-28.77 91.91-28.77 85.52-8.79 85.27-8.79 79.22-28.77 70.02-28.77ZM124.37 0L133.16 0 122.67-28.77 111.52-28.77 100.94 0 109.57 0 111.6-6.05 122.38-6.05ZM113.8-12.69L116.78-21.68 117.28-21.68 120.22-12.69ZM155.71-28.77L133.78-28.77 133.78-21.56 140.62-21.56 140.62 0 148.83 0 148.83-21.56 155.71-21.56ZM167.48-7.09L167.48-11.15 177.14-11.15 177.14-17.99 167.48-17.99 167.48-21.64 178.01-21.64 178.01-28.77 159.23-28.77 159.23 0 178.26 0 178.26-7.09Z" transform="translate(-2.740000009536743, 28.770000457763672)"></path></g> <!----> <!----> <!----> <!----> <!----> <!----> <!----></g></g> <!----></g></g><defs v-gra="od"></defs></svg>